{"asset":{"generator":"Khronos glTF Blender I/O v5.1.18","version":"2.0"},"extensionsUsed":["KHR_materials_emissive_strength","EXT_texture_webp"],"scene":0,"scenes":[{"name":"Scene","nodes":[0,1,2,3,4]}],"nodes":[{"mesh":0,"name":"grid","rotation":[0,0.7071068286895752,0,0.7071068286895752],"scale":[102.17415618896484,102.17415618896484,102.17415618896484],"translation":[91.27354431152344,-2.8619017601013184,137.47518920898438]},{"mesh":1,"name":"chao","rotation":[0,0.7071068286895752,0,0.7071068286895752],"scale":[102.17415618896484,102.17415618896484,102.17415618896484],"translation":[91.27354431152344,-2.8619017601013184,137.47518920898438]},{"mesh":2,"name":"luzes","rotation":[0,0.7071068286895752,0,0.7071068286895752],"scale":[102.17415618896484,102.17415618896484,102.17415618896484],"translation":[91.27354431152344,-2.8619017601013184,137.47518920898438]},{"mesh":3,"name":"paredes","rotation":[0,0.7071068286895752,0,0.7071068286895752],"scale":[102.17415618896484,102.17415618896484,102.17415618896484],"translation":[91.27354431152344,-2.8619017601013184,137.47518920898438]},{"mesh":4,"name":"teto","rotation":[0,0.7071068286895752,0,0.7071068286895752],"scale":[102.17415618896484,102.17415618896484,102.17415618896484],"translation":[91.27354431152344,-2.8619017601013184,137.47518920898438]}],"materials":[{"doubleSided":true,"name":"grid","pbrMetallicRoughness":{"baseColorFactor":[0.800000011920929,0.800000011920929,0.800000011920929,1],"metallicFactor":0,"roughnessFactor":0.5}},{"doubleSided":true,"name":"chao","pbrMetallicRoughness":{"baseColorTexture":{"index":0},"metallicFactor":0,"metallicRoughnessTexture":{"index":1}}},{"doubleSided":true,"emissiveFactor":[1,0.9799408912658691,0.7027231454849243],"extensions":{"KHR_materials_emissive_strength":{"emissiveStrength":30}},"name":"luz","pbrMetallicRoughness":{"baseColorFactor":[0,0,0,1]}},{"doubleSided":true,"name":"wall.001","pbrMetallicRoughness":{"baseColorTexture":{"index":2},"metallicFactor":0}},{"doubleSided":true,"name":"teto","pbrMetallicRoughness":{"baseColorFactor":[0.6239606738090515,0.6239606738090515,0.3467040956020355,1],"metallicFactor":0,"roughnessFactor":0.5}}],"meshes":[{"name":"Plane.002","primitives":[{"attributes":{"POSITION":0,"NORMAL":1,"TEXCOORD_0":2,"TEXCOORD_1":3,"TANGENT":4},"indices":5,"material":0}]},{"name":"Plane.001","primitives":[{"attributes":{"POSITION":6,"NORMAL":7,"TEXCOORD_0":8,"TEXCOORD_1":9,"TANGENT":10},"indices":11,"material":1}]},{"name":"Plane.008","primitives":[{"attributes":{"POSITION":12,"NORMAL":13,"TEXCOORD_0":14,"TEXCOORD_1":15,"TANGENT":16},"indices":17,"material":2}]},{"name":"Plane.021","primitives":[{"attributes":{"POSITION":18,"NORMAL":19,"TEXCOORD_0":20,"TEXCOORD_1":21,"TANGENT":22},"indices":23,"material":3}]},{"name":"Plane.023","primitives":[{"attributes":{"POSITION":24,"NORMAL":25,"TEXCOORD_0":26,"TEXCOORD_1":27,"TANGENT":28},"indices":29,"material":4}]}],"textures":[{"extensions":{"EXT_texture_webp":{"source":0}},"sampler":0,"source":1},{"extensions":{"EXT_texture_webp":{"source":2}},"sampler":0,"source":3},{"extensions":{"EXT_texture_webp":{"source":4}},"sampler":0,"source":5}],"images":[{"bufferView":12,"mimeType":"image/webp","name":"carpet"},{"bufferView":13,"mimeType":"image/jpeg","name":"carpet"},{"bufferView":14,"mimeType":"image/webp","name":"carpet"},{"bufferView":15,"mimeType":"image/png","name":"carpet"},{"bufferView":28,"mimeType":"image/webp","name":"1650192353526"},{"bufferView":29,"mimeType":"image/png","name":"1650192353526"},{"bufferView":36,"mimeType":"image/png","name":"1650192353526"},{"bufferView":37,"mimeType":"image/png","name":"1650192353526"},{"bufferView":38,"mimeType":"image/png","name":"1650192353526"},{"bufferView":39,"mimeType":"image/png","name":"1650192353526"},{"bufferView":40,"mimeType":"image/png","name":"1650192353526"},{"bufferView":41,"mimeType":"image/png","name":"1650192353526"},{"bufferView":42,"mimeType":"image/png","name":"1650192353526"},{"bufferView":43,"mimeType":"image/png","name":"1650192353526"},{"bufferView":44,"mimeType":"image/png","name":"1650192353526"},{"bufferView":45,"mimeType":"image/png","name":"1650192353526"},{"bufferView":46,"mimeType":"image/png","name":"1650192353526"},{"bufferView":47,"mimeType":"image/png","name":"1650192353526"},{"bufferView":48,"mimeType":"image/png","name":"1650192353526"},{"bufferView":49,"mimeType":"image/png","name":"1650192353526"}],"accessors":[{"bufferView":0,"componentType":5126,"count":99988,"max":[4.948291778564453,0.23254571855068207,1.1996556520462036],"min":[-1.7216473817825317,0.22374939918518066,-4.155126571655273],"type":"VEC3"},{"bufferView":1,"componentType":5126,"count":99988,"type":"VEC3"},{"bufferView":2,"componentType":5126,"count":99988,"type":"VEC2"},{"bufferView":3,"componentType":5126,"count":99988,"type":"VEC2"},{"bufferView":4,"componentType":5126,"count":99988,"type":"VEC4"},{"bufferView":5,"componentType":5125,"count":149982,"type":"SCALAR"},{"bufferView":6,"componentType":5126,"count":32,"max":[5,0,1],"min":[-1,0,-5],"type":"VEC3"},{"bufferView":7,"componentType":5126,"count":32,"type":"VEC3"},{"bufferView":8,"componentType":5126,"count":32,"type":"VEC2"},{"bufferView":9,"componentType":5126,"count":32,"type":"VEC2"},{"bufferView":10,"componentType":5126,"count":32,"type":"VEC4"},{"bufferView":11,"componentType":5123,"count":48,"type":"SCALAR"},{"bufferView":16,"componentType":5126,"count":1612,"max":[4.509146690368652,0.22839313745498657,1.0476747751235962],"min":[-1.5696665048599243,0.22374951839447021,-3.980182409286499],"type":"VEC3"},{"bufferView":17,"componentType":5126,"count":1612,"type":"VEC3"},{"bufferView":18,"componentType":5126,"count":1612,"type":"VEC2"},{"bufferView":19,"componentType":5126,"count":1612,"type":"VEC2"},{"bufferView":20,"componentType":5126,"count":1612,"type":"VEC4"},{"bufferView":21,"componentType":5123,"count":3624,"type":"SCALAR"},{"bufferView":22,"componentType":5126,"count":4356,"max":[4.156790256500244,0.23255179822444916,0.988581657409668],"min":[-0.9662188291549683,-0.006821960210800171,-4.427834510803223],"type":"VEC3"},{"bufferView":23,"componentType":5126,"count":4356,"type":"VEC3"},{"bufferView":24,"componentType":5126,"count":4356,"type":"VEC2"},{"bufferView":25,"componentType":5126,"count":4356,"type":"VEC2"},{"bufferView":26,"componentType":5126,"count":4356,"type":"VEC4"},{"bufferView":27,"componentType":5123,"count":6534,"type":"SCALAR"},{"bufferView":30,"componentType":5126,"count":166565,"max":[4.948292255401611,0.23545661568641663,1.1996556520462036],"min":[-1.7216473817825317,0.22374939918518066,-4.155126571655273],"type":"VEC3"},{"bufferView":31,"componentType":5126,"count":166565,"type":"VEC3"},{"bufferView":32,"componentType":5126,"count":166565,"type":"VEC2"},{"bufferView":33,"componentType":5126,"count":166565,"type":"VEC2"},{"bufferView":34,"componentType":5126,"count":166565,"type":"VEC4"},{"bufferView":35,"componentType":5125,"count":394911,"type":"SCALAR"}],"bufferViews":[{"buffer":0,"byteLength":1199856,"byteOffset":0,"target":34962},{"buffer":0,"byteLength":1199856,"byteOffset":1199856,"target":34962},{"buffer":0,"byteLength":799904,"byteOffset":2399712,"target":34962},{"buffer":0,"byteLength":799904,"byteOffset":3199616,"target":34962},{"buffer":0,"byteLength":1599808,"byteOffset":3999520,"target":34962},{"buffer":0,"byteLength":599928,"byteOffset":5599328,"target":34963},{"buffer":0,"byteLength":384,"byteOffset":6199256,"target":34962},{"buffer":0,"byteLength":384,"byteOffset":6199640,"target":34962},{"buffer":0,"byteLength":256,"byteOffset":6200024,"target":34962},{"buffer":0,"byteLength":256,"byteOffset":6200280,"target":34962},{"buffer":0,"byteLength":512,"byteOffset":6200536,"target":34962},{"buffer":0,"byteLength":96,"byteOffset":6201048,"target":34963},{"buffer":0,"byteLength":113524,"byteOffset":6201144},{"buffer":0,"byteLength":267570,"byteOffset":6314668},{"buffer":0,"byteLength":65384,"byteOffset":6582240},{"buffer":0,"byteLength":1028277,"byteOffset":6647624},{"buffer":0,"byteLength":19344,"byteOffset":7675904,"target":34962},{"buffer":0,"byteLength":19344,"byteOffset":7695248,"target":34962},{"buffer":0,"byteLength":12896,"byteOffset":7714592,"target":34962},{"buffer":0,"byteLength":12896,"byteOffset":7727488,"target":34962},{"buffer":0,"byteLength":25792,"byteOffset":7740384,"target":34962},{"buffer":0,"byteLength":7248,"byteOffset":7766176,"target":34963},{"buffer":0,"byteLength":52272,"byteOffset":7773424,"target":34962},{"buffer":0,"byteLength":52272,"byteOffset":7825696,"target":34962},{"buffer":0,"byteLength":34848,"byteOffset":7877968,"target":34962},{"buffer":0,"byteLength":34848,"byteOffset":7912816,"target":34962},{"buffer":0,"byteLength":69696,"byteOffset":7947664,"target":34962},{"buffer":0,"byteLength":13068,"byteOffset":8017360,"target":34963},{"buffer":0,"byteLength":2208,"byteOffset":8030428},{"buffer":0,"byteLength":2399,"byteOffset":8032636},{"buffer":0,"byteLength":1998780,"byteOffset":8035036,"target":34962},{"buffer":0,"byteLength":1998780,"byteOffset":10033816,"target":34962},{"buffer":0,"byteLength":1332520,"byteOffset":12032596,"target":34962},{"buffer":0,"byteLength":1332520,"byteOffset":13365116,"target":34962},{"buffer":0,"byteLength":2665040,"byteOffset":14697636,"target":34962},{"buffer":0,"byteLength":1579644,"byteOffset":17362676,"target":34963},{"buffer":0,"byteLength":2399,"byteOffset":18942320},{"buffer":0,"byteLength":2399,"byteOffset":18944720},{"buffer":0,"byteLength":2399,"byteOffset":18947120},{"buffer":0,"byteLength":2399,"byteOffset":18949520},{"buffer":0,"byteLength":2399,"byteOffset":18951920},{"buffer":0,"byteLength":2399,"byteOffset":18954320},{"buffer":0,"byteLength":2399,"byteOffset":18956720},{"buffer":0,"byteLength":2399,"byteOffset":18959120},{"buffer":0,"byteLength":2399,"byteOffset":18961520},{"buffer":0,"byteLength":2399,"byteOffset":18963920},{"buffer":0,"byteLength":2399,"byteOffset":18966320},{"buffer":0,"byteLength":2399,"byteOffset":18968720},{"buffer":0,"byteLength":2399,"byteOffset":18971120},{"buffer":0,"byteLength":2399,"byteOffset":18973520}],"samplers":[{"magFilter":9729,"minFilter":9987}],"buffers":[{"byteLength":18975920,"uri":"backrooms.bin"}]}