{
	"asset":{
		"generator":"Khronos glTF Blender I/O v5.1.18",
		"version":"2.0"
	},
	"extensionsUsed":[
		"KHR_materials_emissive_strength",
		"KHR_lights_punctual"
	],
	"extensionsRequired":[
		"KHR_lights_punctual"
	],
	"extensions":{
		"KHR_lights_punctual":{
			"lights":[
				{
					"color":[
						1,
						1,
						1
					],
					"intensity":-5435141.306588226,
					"type":"point",
					"name":"Area.011"
				}
			]
		}
	},
	"scene":0,
	"scenes":[
		{
			"name":"Scene",
			"nodes":[
				0,
				1,
				2,
				3,
				4,
				5,
				6,
				7,
				8,
				9,
				10,
				11,
				12,
				13,
				14,
				15,
				16
			]
		}
	],
	"nodes":[
		{
			"mesh":0,
			"name":"grid",
			"rotation":[
				0,
				0.7071068286895752,
				0,
				0.7071068286895752
			],
			"scale":[
				102.17415618896484,
				102.17415618896484,
				102.17415618896484
			],
			"translation":[
				91.27354431152344,
				-2.8619017601013184,
				137.47518920898438
			]
		},
		{
			"extensions":{
				"KHR_lights_punctual":{
					"light":0
				}
			},
			"name":"Area.011",
			"rotation":[
				-0.5000000596046448,
				-0.5,
				0.5,
				0.5
			],
			"scale":[
				98.45246887207031,
				98.45246124267578,
				98.45246124267578
			],
			"translation":[
				33.92378234863281,
				5.970416069030762,
				156.4569854736328
			]
		},
		{
			"mesh":1,
			"name":"chao",
			"rotation":[
				0,
				0.7071068286895752,
				0,
				0.7071068286895752
			],
			"scale":[
				102.17415618896484,
				102.17415618896484,
				102.17415618896484
			],
			"translation":[
				91.27354431152344,
				-2.8619017601013184,
				137.47518920898438
			]
		},
		{
			"mesh":2,
			"name":"luzes",
			"rotation":[
				0,
				0.7071068286895752,
				0,
				0.7071068286895752
			],
			"scale":[
				102.17415618896484,
				102.17415618896484,
				102.17415618896484
			],
			"translation":[
				91.27354431152344,
				-2.8619017601013184,
				137.47518920898438
			]
		},
		{
			"mesh":3,
			"name":"paredes",
			"rotation":[
				0,
				0.7071068286895752,
				0,
				0.7071068286895752
			],
			"scale":[
				102.17415618896484,
				102.17415618896484,
				102.17415618896484
			],
			"translation":[
				91.27354431152344,
				-2.8619017601013184,
				137.47518920898438
			]
		},
		{
			"mesh":4,
			"name":"teto",
			"rotation":[
				0,
				0.7071068286895752,
				0,
				0.7071068286895752
			],
			"scale":[
				102.17415618896484,
				102.17415618896484,
				102.17415618896484
			],
			"translation":[
				91.27354431152344,
				-2.8619017601013184,
				137.47518920898438
			]
		},
		{
			"name":"Area",
			"rotation":[
				-0.09603563696146011,
				0.09603570401668549,
				0.7005549073219299,
				0.7005548477172852
			],
			"scale":[
				53.22184371948242,
				53.22185516357422,
				53.221839904785156
			],
			"translation":[
				-75.37664794921875,
				16.71764373779297,
				87.0149917602539
			]
		},
		{
			"name":"Area.001",
			"rotation":[
				-0.5,
				0.5,
				0.5,
				0.5
			],
			"scale":[
				9.187934875488281,
				9.187933921813965,
				9.187933921813965
			],
			"translation":[
				-64.33009338378906,
				19.903940200805664,
				-0.004767417907714844
			]
		},
		{
			"name":"Area.002",
			"rotation":[
				-0.5,
				0.5,
				0.5,
				0.5
			],
			"scale":[
				9.187934875488281,
				9.187933921813965,
				9.187933921813965
			],
			"translation":[
				-135.10147094726562,
				19.903940200805664,
				-0.004761695861816406
			]
		},
		{
			"name":"Area.003",
			"rotation":[
				-0.5,
				0.5,
				0.5,
				0.5
			],
			"scale":[
				9.187934875488281,
				9.187933921813965,
				9.187933921813965
			],
			"translation":[
				-180.1261749267578,
				19.903940200805664,
				-0.004761695861816406
			]
		},
		{
			"name":"Area.004",
			"rotation":[
				-0.5,
				0.5,
				0.5,
				0.5
			],
			"scale":[
				9.187934875488281,
				9.187933921813965,
				9.187933921813965
			],
			"translation":[
				-224.59310913085938,
				19.903940200805664,
				-0.004761695861816406
			]
		},
		{
			"name":"Area.005",
			"rotation":[
				-0.5,
				0.5,
				0.5,
				0.5
			],
			"scale":[
				9.187934875488281,
				9.187933921813965,
				9.187933921813965
			],
			"translation":[
				-269.0368347167969,
				19.903940200805664,
				-0.004761695861816406
			]
		},
		{
			"name":"Area.006",
			"rotation":[
				-0.5,
				0.5,
				0.5,
				0.5
			],
			"scale":[
				9.187934875488281,
				9.187933921813965,
				9.187933921813965
			],
			"translation":[
				-310.811767578125,
				19.903940200805664,
				-0.004761695861816406
			]
		},
		{
			"name":"Area.007",
			"rotation":[
				-0.5,
				0.5,
				0.5,
				0.5
			],
			"scale":[
				9.187934875488281,
				9.187933921813965,
				9.187933921813965
			],
			"translation":[
				-135.10147094726562,
				19.903940200805664,
				-80.00798797607422
			]
		},
		{
			"name":"Area.008",
			"rotation":[
				-0.5,
				0.5,
				0.5,
				0.5
			],
			"scale":[
				9.187934875488281,
				9.187933921813965,
				9.187933921813965
			],
			"translation":[
				-64.33009338378906,
				19.903940200805664,
				-80.00798797607422
			]
		},
		{
			"name":"Area.009",
			"rotation":[
				-0.5,
				0.5,
				0.5,
				0.5
			],
			"scale":[
				9.187934875488281,
				9.187933921813965,
				9.187933921813965
			],
			"translation":[
				-64.33009338378906,
				19.903940200805664,
				35.873680114746094
			]
		},
		{
			"name":"Area.010",
			"rotation":[
				-0.5,
				0.5,
				0.5,
				0.5
			],
			"scale":[
				9.187934875488281,
				9.187933921813965,
				9.187933921813965
			],
			"translation":[
				25.184864044189453,
				19.903940200805664,
				-0.004775047302246094
			]
		}
	],
	"materials":[
		{
			"doubleSided":true,
			"name":"grid",
			"pbrMetallicRoughness":{
				"baseColorFactor":[
					0.800000011920929,
					0.800000011920929,
					0.800000011920929,
					1
				],
				"metallicFactor":0,
				"roughnessFactor":0.5
			}
		},
		{
			"doubleSided":true,
			"name":"chao",
			"pbrMetallicRoughness":{
				"baseColorTexture":{
					"index":0
				},
				"metallicFactor":0,
				"metallicRoughnessTexture":{
					"index":1
				}
			}
		},
		{
			"doubleSided":true,
			"emissiveFactor":[
				1,
				0.9799408912658691,
				0.7027231454849243
			],
			"extensions":{
				"KHR_materials_emissive_strength":{
					"emissiveStrength":30
				}
			},
			"name":"luz",
			"pbrMetallicRoughness":{
				"baseColorFactor":[
					0,
					0,
					0,
					1
				]
			}
		},
		{
			"doubleSided":true,
			"name":"wall.001",
			"pbrMetallicRoughness":{
				"baseColorTexture":{
					"index":2
				},
				"metallicFactor":0
			}
		},
		{
			"doubleSided":true,
			"name":"teto",
			"pbrMetallicRoughness":{
				"baseColorFactor":[
					0.6266611814498901,
					0.6213964819908142,
					0.3468242585659027,
					1
				],
				"metallicFactor":0,
				"roughnessFactor":0.5
			}
		}
	],
	"meshes":[
		{
			"name":"Plane.002",
			"primitives":[
				{
					"attributes":{
						"POSITION":0,
						"NORMAL":1,
						"TEXCOORD_0":2,
						"TEXCOORD_1":3,
						"TANGENT":4
					},
					"indices":5,
					"material":0
				}
			]
		},
		{
			"name":"Plane.001",
			"primitives":[
				{
					"attributes":{
						"POSITION":6,
						"NORMAL":7,
						"TEXCOORD_0":8,
						"TEXCOORD_1":9,
						"TANGENT":10
					},
					"indices":11,
					"material":1
				}
			]
		},
		{
			"name":"Plane.008",
			"primitives":[
				{
					"attributes":{
						"POSITION":12,
						"NORMAL":13,
						"TEXCOORD_0":14,
						"TEXCOORD_1":15,
						"TANGENT":16
					},
					"indices":17,
					"material":2
				}
			]
		},
		{
			"name":"Plane.021",
			"primitives":[
				{
					"attributes":{
						"POSITION":18,
						"NORMAL":19,
						"TEXCOORD_0":20,
						"TEXCOORD_1":21,
						"TANGENT":22
					},
					"indices":23,
					"material":3
				}
			]
		},
		{
			"name":"Plane.023",
			"primitives":[
				{
					"attributes":{
						"POSITION":24,
						"NORMAL":25,
						"TEXCOORD_0":26,
						"TEXCOORD_1":27,
						"TANGENT":28
					},
					"indices":29,
					"material":4
				}
			]
		}
	],
	"textures":[
		{
			"sampler":0,
			"source":0
		},
		{
			"sampler":0,
			"source":1
		},
		{
			"sampler":0,
			"source":2
		}
	],
	"images":[
		{
			"mimeType":"image/jpeg",
			"name":"carpet",
			"uri":"carpet.jpg"
		},
		{
			"mimeType":"image/png",
			"name":"carpet",
			"uri":"carpet.png"
		},
		{
			"mimeType":"image/png",
			"name":"1650192353526",
			"uri":"1650192353526.png"
		}
	],
	"accessors":[
		{
			"bufferView":0,
			"componentType":5126,
			"count":99988,
			"max":[
				4.948291778564453,
				0.23254571855068207,
				1.1996556520462036
			],
			"min":[
				-1.7216473817825317,
				0.22374939918518066,
				-4.155126571655273
			],
			"type":"VEC3"
		},
		{
			"bufferView":1,
			"componentType":5126,
			"count":99988,
			"type":"VEC3"
		},
		{
			"bufferView":2,
			"componentType":5126,
			"count":99988,
			"type":"VEC2"
		},
		{
			"bufferView":3,
			"componentType":5126,
			"count":99988,
			"type":"VEC2"
		},
		{
			"bufferView":4,
			"componentType":5126,
			"count":99988,
			"type":"VEC4"
		},
		{
			"bufferView":5,
			"componentType":5125,
			"count":149982,
			"type":"SCALAR"
		},
		{
			"bufferView":6,
			"componentType":5126,
			"count":32,
			"max":[
				5,
				0,
				1
			],
			"min":[
				-1,
				0,
				-5
			],
			"type":"VEC3"
		},
		{
			"bufferView":7,
			"componentType":5126,
			"count":32,
			"type":"VEC3"
		},
		{
			"bufferView":8,
			"componentType":5126,
			"count":32,
			"type":"VEC2"
		},
		{
			"bufferView":9,
			"componentType":5126,
			"count":32,
			"type":"VEC2"
		},
		{
			"bufferView":10,
			"componentType":5126,
			"count":32,
			"type":"VEC4"
		},
		{
			"bufferView":11,
			"componentType":5123,
			"count":48,
			"type":"SCALAR"
		},
		{
			"bufferView":12,
			"componentType":5126,
			"count":1612,
			"max":[
				4.509146690368652,
				0.22839313745498657,
				1.0476747751235962
			],
			"min":[
				-1.5696665048599243,
				0.22374951839447021,
				-3.980182409286499
			],
			"type":"VEC3"
		},
		{
			"bufferView":13,
			"componentType":5126,
			"count":1612,
			"type":"VEC3"
		},
		{
			"bufferView":14,
			"componentType":5126,
			"count":1612,
			"type":"VEC2"
		},
		{
			"bufferView":15,
			"componentType":5126,
			"count":1612,
			"type":"VEC2"
		},
		{
			"bufferView":16,
			"componentType":5126,
			"count":1612,
			"type":"VEC4"
		},
		{
			"bufferView":17,
			"componentType":5123,
			"count":3624,
			"type":"SCALAR"
		},
		{
			"bufferView":18,
			"componentType":5126,
			"count":4356,
			"max":[
				4.156790256500244,
				0.23255179822444916,
				0.988581657409668
			],
			"min":[
				-0.9662188291549683,
				-0.006821960210800171,
				-4.427834510803223
			],
			"type":"VEC3"
		},
		{
			"bufferView":19,
			"componentType":5126,
			"count":4356,
			"type":"VEC3"
		},
		{
			"bufferView":20,
			"componentType":5126,
			"count":4356,
			"type":"VEC2"
		},
		{
			"bufferView":21,
			"componentType":5126,
			"count":4356,
			"type":"VEC2"
		},
		{
			"bufferView":22,
			"componentType":5126,
			"count":4356,
			"type":"VEC4"
		},
		{
			"bufferView":23,
			"componentType":5123,
			"count":6534,
			"type":"SCALAR"
		},
		{
			"bufferView":24,
			"componentType":5126,
			"count":166565,
			"max":[
				4.948292255401611,
				0.23545661568641663,
				1.1996556520462036
			],
			"min":[
				-1.7216473817825317,
				0.22374939918518066,
				-4.155126571655273
			],
			"type":"VEC3"
		},
		{
			"bufferView":25,
			"componentType":5126,
			"count":166565,
			"type":"VEC3"
		},
		{
			"bufferView":26,
			"componentType":5126,
			"count":166565,
			"type":"VEC2"
		},
		{
			"bufferView":27,
			"componentType":5126,
			"count":166565,
			"type":"VEC2"
		},
		{
			"bufferView":28,
			"componentType":5126,
			"count":166565,
			"type":"VEC4"
		},
		{
			"bufferView":29,
			"componentType":5125,
			"count":394911,
			"type":"SCALAR"
		}
	],
	"bufferViews":[
		{
			"buffer":0,
			"byteLength":1199856,
			"byteOffset":0,
			"target":34962
		},
		{
			"buffer":0,
			"byteLength":1199856,
			"byteOffset":1199856,
			"target":34962
		},
		{
			"buffer":0,
			"byteLength":799904,
			"byteOffset":2399712,
			"target":34962
		},
		{
			"buffer":0,
			"byteLength":799904,
			"byteOffset":3199616,
			"target":34962
		},
		{
			"buffer":0,
			"byteLength":1599808,
			"byteOffset":3999520,
			"target":34962
		},
		{
			"buffer":0,
			"byteLength":599928,
			"byteOffset":5599328,
			"target":34963
		},
		{
			"buffer":0,
			"byteLength":384,
			"byteOffset":6199256,
			"target":34962
		},
		{
			"buffer":0,
			"byteLength":384,
			"byteOffset":6199640,
			"target":34962
		},
		{
			"buffer":0,
			"byteLength":256,
			"byteOffset":6200024,
			"target":34962
		},
		{
			"buffer":0,
			"byteLength":256,
			"byteOffset":6200280,
			"target":34962
		},
		{
			"buffer":0,
			"byteLength":512,
			"byteOffset":6200536,
			"target":34962
		},
		{
			"buffer":0,
			"byteLength":96,
			"byteOffset":6201048,
			"target":34963
		},
		{
			"buffer":0,
			"byteLength":19344,
			"byteOffset":6201144,
			"target":34962
		},
		{
			"buffer":0,
			"byteLength":19344,
			"byteOffset":6220488,
			"target":34962
		},
		{
			"buffer":0,
			"byteLength":12896,
			"byteOffset":6239832,
			"target":34962
		},
		{
			"buffer":0,
			"byteLength":12896,
			"byteOffset":6252728,
			"target":34962
		},
		{
			"buffer":0,
			"byteLength":25792,
			"byteOffset":6265624,
			"target":34962
		},
		{
			"buffer":0,
			"byteLength":7248,
			"byteOffset":6291416,
			"target":34963
		},
		{
			"buffer":0,
			"byteLength":52272,
			"byteOffset":6298664,
			"target":34962
		},
		{
			"buffer":0,
			"byteLength":52272,
			"byteOffset":6350936,
			"target":34962
		},
		{
			"buffer":0,
			"byteLength":34848,
			"byteOffset":6403208,
			"target":34962
		},
		{
			"buffer":0,
			"byteLength":34848,
			"byteOffset":6438056,
			"target":34962
		},
		{
			"buffer":0,
			"byteLength":69696,
			"byteOffset":6472904,
			"target":34962
		},
		{
			"buffer":0,
			"byteLength":13068,
			"byteOffset":6542600,
			"target":34963
		},
		{
			"buffer":0,
			"byteLength":1998780,
			"byteOffset":6555668,
			"target":34962
		},
		{
			"buffer":0,
			"byteLength":1998780,
			"byteOffset":8554448,
			"target":34962
		},
		{
			"buffer":0,
			"byteLength":1332520,
			"byteOffset":10553228,
			"target":34962
		},
		{
			"buffer":0,
			"byteLength":1332520,
			"byteOffset":11885748,
			"target":34962
		},
		{
			"buffer":0,
			"byteLength":2665040,
			"byteOffset":13218268,
			"target":34962
		},
		{
			"buffer":0,
			"byteLength":1579644,
			"byteOffset":15883308,
			"target":34963
		}
	],
	"samplers":[
		{
			"magFilter":9729,
			"minFilter":9987
		}
	],
	"buffers":[
		{
			"byteLength":17462952,
			"uri":"backrooms%20SITE1.bin"
		}
	]
}
